PathFileType	4	(X/Y/Z)	s10c0201.trc
DataRate	CameraRate	NumFrames	NumMarkers	Units	OrigDataRate	OrigDataStartFrame	OrigNumFrames
200	200	5	50	mm	200	0	2000
Frame#	Time	racr			lacr			c7			jug			rlel			rdr			llel			ldr			s2			lic			ric			lasi			rasi			rpsi			lpsi			rgt			lgt			rth1			rth2			rth3			rth4			rlfc			rmfc			rsh1			rsh2			rsh3			rsh4			rlmal			rmmal			rcal			rtoe			rmt5			lth1			lth2			lth4			lth3			llfc			lmfc			llmal			lmmal			lcal			lmt5			lsh1			lsh2			lsh3			lsh4			ltoe			SBIKE			LBIKE			RBIKE			
		X1	Y1	Z1	X2	Y2	Z2	X3	Y3	Z3	X4	Y4	Z4	X5	Y5	Z5	X6	Y6	Z6	X7	Y7	Z7	X8	Y8	Z8	X9	Y9	Z9	X10	Y10	Z10	X11	Y11	Z11	X12	Y12	Z12	X13	Y13	Z13	X14	Y14	Z14	X15	Y15	Z15	X16	Y16	Z16	X17	Y17	Z17	X18	Y18	Z18	X19	Y19	Z19	X20	Y20	Z20	X21	Y21	Z21	X22	Y22	Z22	X23	Y23	Z23	X24	Y24	Z24	X25	Y25	Z25	X26	Y26	Z26	X27	Y27	Z27	X28	Y28	Z28	X29	Y29	Z29	X30	Y30	Z30	X31	Y31	Z31	X32	Y32	Z32	X33	Y33	Z33	X34	Y34	Z34	X35	Y35	Z35	X36	Y36	Z36	X37	Y37	Z37	X38	Y38	Z38	X39	Y39	Z39	X40	Y40	Z40	X41	Y41	Z41	X42	Y42	Z42	X43	Y43	Z43	X44	Y44	Z44	X45	Y45	Z45	X46	Y46	Z46	X47	Y47	Z47	X48	Y48	Z48	X49	Y49	Z49	X50	Y50	Z50	
0	0.0000	400.885902	1338.994715	-57.191941	410.030805	1349.221841	-383.806294	388.077432	1377.661213	-223.253698	407.746600	1237.736782	-216.969988	470.381680	1082.013198	7.009315	625.926121	913.379553	-39.010217	465.723810	1081.360733	-469.432588	618.092611	910.800781	-427.218147	-88.247005	1106.808197	-219.633701	75.807296	1093.459905	-374.014148	98.927843	1104.039330	-76.893488	93.307006	1004.916733	-342.555702	86.618465	1018.685811	-87.534883	-38.404465	1144.112746	-161.887072	-32.692206	1147.178314	-274.682390	-34.214459	1021.994645	-20.133995	-44.710639	983.448919	-415.643074	56.611860	928.528697	9.273128	144.611669	919.193087	-2.330907	213.529110	868.095800	-5.204439	155.784240	953.462792	-15.030201	322.645451	823.317781	-24.659057	319.952871	814.778627	-141.637854	263.930812	718.888352	-6.742887	263.704873	631.282821	-24.084138	220.767053	557.606587	-37.149859	294.816350	628.237683	-45.965263	197.850390	456.587204	-61.582475	221.667130	480.914758	-137.642956	146.534312	430.705659	-107.384758	389.031357	425.187945	-105.818718	309.458404	394.613342	-42.866651	20.658092	871.031570	-437.929914	96.465604	828.328373	-430.681054	121.388829	853.587451	-419.703126	140.538184	751.079288	-428.663503	213.173746	665.800741	-412.821137	221.768241	658.891783	-292.680213	-29.850544	383.391016	-378.404961	-11.097525	376.082722	-301.115642	-85.674959	389.978997	-331.265566	14.101182	246.809815	-399.208232	117.742755	586.055503	-431.570278	92.782937	501.458964	-412.453473	26.398933	443.680187	-400.689359	120.509593	489.967076	-390.441234	97.441844	217.000469	-346.582933	-218.129821	834.939998	-214.752580	-104.375610	80.212991	-418.283304	-103.596255	81.256771	-18.008036	
1	0.0050	400.967942	1338.983293	-57.023277	410.907739	1349.916681	-384.372486	388.551805	1377.886311	-223.482132	407.970569	1237.784097	-216.984963	470.312541	1081.921339	7.218318	625.928422	913.379315	-38.893947	465.634276	1081.324894	-469.455080	618.077261	910.790163	-427.179258	-88.131510	1106.371965	-219.352301	76.106833	1093.295589	-373.978793	99.114208	1103.890057	-76.963741	93.437548	1004.770954	-342.564159	86.715104	1018.675939	-87.530108	-38.017906	1144.140229	-161.995915	-32.393229	1147.132763	-274.764393	-34.151478	1022.124093	-20.155151	-44.609496	983.451332	-415.690195	56.614094	928.587839	9.272910	144.585586	919.271187	-2.300793	213.520784	868.169160	-5.129572	155.812451	953.560526	-15.024932	322.653901	823.366358	-24.585251	319.942722	814.844113	-141.563267	263.956955	718.924278	-6.693123	263.742378	631.326795	-24.037084	220.796597	557.655941	-37.119206	294.849334	628.273216	-45.924094	197.887938	456.625890	-61.566618	221.673411	480.951588	-137.606211	146.547855	430.760958	-107.422609	389.052372	425.183795	-105.828012	309.494702	394.625711	-42.873072	20.695978	871.011161	-437.975467	96.501121	828.289270	-430.712765	121.426521	853.546828	-419.733008	140.568354	751.018587	-428.692584	213.183250	665.709170	-412.846100	221.750131	658.824889	-292.737225	-29.900599	383.365759	-378.410982	-11.091914	376.049601	-301.137558	-85.740404	389.948311	-331.270443	14.110565	246.811788	-399.211535	117.728486	586.003286	-431.599107	92.741472	501.398435	-412.438291	26.343372	443.637848	-400.693061	120.487463	489.922992	-390.465663	97.452475	217.020499	-346.574905	-218.104011	834.833737	-214.656960	-104.155323	81.674071	-417.405987	-103.604199	81.247667	-18.013635	
2	0.0100	401.034727	1338.985515	-56.863126	409.946421	1349.114138	-384.046168	388.447382	1377.739340	-223.215138	408.226758	1237.867203	-216.954270	470.255464	1081.838577	7.371222	625.927623	913.382223	-38.767408	465.560010	1081.261955	-469.477810	618.061191	910.779222	-427.146133	-87.824805	1106.911207	-219.791171	76.369166	1093.136466	-373.961199	99.332346	1103.748392	-77.021696	93.581850	1004.603435	-342.576142	86.817918	1018.662096	-87.507415	-37.719452	1144.121541	-162.113516	-32.074491	1147.118874	-274.832238	-34.073545	1022.231871	-20.196594	-44.486720	983.418299	-415.732353	56.588490	928.703602	9.285355	144.590865	919.349617	-2.262823	213.513744	868.239700	-5.058634	155.785233	953.626571	-14.985374	322.619771	823.409292	-24.500792	319.947123	814.891297	-141.485683	263.962714	718.976676	-6.607876	263.760024	631.358509	-23.968333	220.818998	557.666289	-37.089759	294.855118	628.305036	-45.860309	197.918328	456.666915	-61.554308	221.722525	480.971808	-137.591402	146.586948	430.810296	-107.453868	389.072216	425.144927	-105.824381	309.509470	394.609752	-42.872525	20.742600	870.987751	-438.005004	96.555651	828.264356	-430.754676	121.467837	853.507991	-419.776847	140.597089	750.987481	-428.723966	213.201911	665.660371	-412.893868	221.761021	658.772174	-292.769124	-29.950737	383.369662	-378.411924	-11.143262	376.033080	-301.121972	-85.785766	389.921805	-331.266199	14.088658	246.818928	-399.221405	117.712787	585.976308	-431.618451	92.718693	501.352985	-412.460230	26.305831	443.626505	-400.699619	120.456310	489.886440	-390.491672	97.457631	217.075289	-346.595332	-218.102563	834.831801	-214.670725	-104.138307	81.685383	-417.401900	-103.596487	81.250320	-18.014153	
3	0.0150	401.109190	1338.978567	-56.707853	410.770436	1349.808986	-384.648159	388.627351	1377.787644	-223.188281	408.473589	1237.930889	-216.927039	470.243499	1081.659835	7.399538	625.900502	913.401000	-38.679260	465.452923	1081.192316	-469.534156	618.038948	910.776454	-427.133906	-87.596252	1106.947378	-219.855480	76.655390	1093.013184	-373.958334	99.485468	1103.809790	-77.060706	94.246282	1004.601715	-342.617686	86.899690	1018.627838	-87.531729	-37.451852	1144.146660	-162.198192	-31.442183	1146.910801	-275.080773	-33.996431	1022.346309	-20.216329	-44.682364	983.299999	-415.241718	56.576921	928.785150	9.306077	144.837632	919.318733	-2.205685	213.492124	868.300114	-4.985861	155.850604	953.532020	-15.063802	322.793816	823.521966	-23.472075	319.980380	814.945318	-141.408225	263.991530	718.960900	-6.540795	263.924910	631.555946	-23.857860	220.779076	557.764049	-37.000198	294.802086	628.339153	-45.822780	197.871693	456.749680	-61.468232	222.766257	482.049822	-137.369034	146.659076	430.861150	-107.450001	389.101864	425.108428	-105.824424	309.406160	394.642142	-42.812266	20.794784	870.971214	-438.060711	96.612825	828.204176	-430.792387	121.520806	853.692745	-420.024219	140.627929	750.965926	-428.783881	213.210468	665.612983	-412.939890	221.796413	658.713796	-292.816267	-30.019304	383.393307	-378.413910	-11.127050	376.042193	-301.154152	-85.840936	389.912498	-331.275474	14.061010	246.837278	-399.223345	117.661012	585.081384	-430.731966	92.858081	501.674775	-413.227218	26.323429	444.280720	-401.353129	119.927332	489.760204	-389.439784	97.460943	217.129290	-346.590357	-218.123431	834.924501	-214.750537	-104.148969	81.689010	-417.398659	-103.595140	81.235238	-18.011336	
4	0.0200	401.250017	1338.905762	-56.495278	410.743708	1349.643845	-384.641740	388.828632	1377.865449	-223.135584	408.705035	1237.969279	-216.870424	470.281800	1081.723763	7.654411	624.667319	912.073111	-39.481209	465.251044	1080.404708	-469.309197	617.828474	910.567860	-426.878967	-86.974857	1105.729225	-219.783516	77.288918	1092.147868	-374.516916	99.679809	1103.644126	-77.141424	94.089858	1003.588493	-342.401395	86.857926	1018.564630	-87.371740	-37.035165	1144.567847	-161.689487	-30.897245	1147.278591	-275.273603	-34.011740	1022.773423	-20.048077	-44.560550	982.954296	-415.660448	56.583563	928.974516	9.297805	144.953548	919.529030	-2.005857	213.440358	868.329961	-4.871364	155.899147	953.775459	-14.825712	322.800436	823.579708	-23.356850	319.977615	815.032280	-141.279109	264.039015	719.118268	-6.268081	264.026515	631.514488	-23.653268	220.941271	557.888829	-36.802520	294.970123	628.268830	-45.597779	197.908707	456.310830	-61.641741	222.617185	481.137385	-137.261999	146.781824	430.920252	-107.053815	389.019831	424.941922	-105.872754	309.515736	394.652892	-42.666817	21.004092	870.438537	-438.125164	96.380561	827.359555	-430.512181	121.244309	852.705102	-419.691952	140.536760	750.157870	-428.787684	213.022934	664.549680	-412.676096	221.971312	658.642895	-292.771243	-30.261182	382.838352	-378.459056	-11.110448	376.073677	-301.005270	-86.123832	389.322828	-331.240241	13.765228	246.045231	-399.273811	117.674667	584.400652	-430.810238	92.879374	501.655256	-413.185320	26.156727	443.575322	-401.414817	119.958034	489.372870	-389.041665	97.082100	216.095404	-345.985110	-218.362756	834.067911	-214.529236	-104.281471	80.438190	-418.342114	-104.129972	80.427759	-18.215660	
